ffmpeg version 3.4.8-0ubuntu0.2 Copyright (c) 2000-2020 the FFmpeg developers
  built with gcc 7 (Ubuntu 7.5.0-3ubuntu1~18.04)
  configuration: --prefix=/usr --extra-version=0ubuntu0.2 --toolchain=hardened --libdir=/usr/lib/x86_64-linux-gnu --incdir=/usr/include/x86_64-linux-gnu --enable-gpl --disable-stripping --enable-avresample --enable-avisynth --enable-gnutls --enable-ladspa --enable-libass --enable-libbluray --enable-libbs2b --enable-libcaca --enable-libcdio --enable-libflite --enable-libfontconfig --enable-libfreetype --enable-libfribidi --enable-libgme --enable-libgsm --enable-libmp3lame --enable-libmysofa --enable-libopenjpeg --enable-libopenmpt --enable-libopus --enable-libpulse --enable-librubberband --enable-librsvg --enable-libshine --enable-libsnappy --enable-libsoxr --enable-libspeex --enable-libssh --enable-libtheora --enable-libtwolame --enable-libvorbis --enable-libvpx --enable-libwavpack --enable-libwebp --enable-libx265 --enable-libxml2 --enable-libxvid --enable-libzmq --enable-libzvbi --enable-omx --enable-openal --enable-opengl --enable-sdl2 --enable-libdc1394 --enable-libdrm --enable-libiec61883 --enable-chromaprint --enable-frei0r --enable-libopencv --enable-libx264 --enable-shared
  libavutil      55. 78.100 / 55. 78.100
  libavcodec     57.107.100 / 57.107.100
  libavformat    57. 83.100 / 57. 83.100
  libavdevice    57. 10.100 / 57. 10.100
  libavfilter     6.107.100 /  6.107.100
  libavresample   3.  7.  0 /  3.  7.  0
  libswscale      4.  8.100 /  4.  8.100
  libswresample   2.  9.100 /  2.  9.100
  libpostproc    54.  7.100 / 54.  7.100
[rawvideo @ 0x55a6d8d94a20] Estimating duration from bitrate, this may be inaccurate
Input #0, rawvideo, from '../../SVC-Encoder-20220109T061506Z-001/SVC-Encoder/Dataset/RollerCoaster/ERP_8x8/tile_yuv/Tile_50_480x240.yuv':
  Duration: 00:00:10.00, start: 0.000000, bitrate: 41472 kb/s
    Stream #0:0: Video: rawvideo (I420 / 0x30323449), yuv420p, 480x240, 41472 kb/s, 30 tbr, 30 tbn, 30 tbc
Stream mapping:
  Stream #0:0 -> #0:0 (rawvideo (native) -> h264 (libx264))
Press [q] to stop, [?] for help
[libx264 @ 0x55a6d8da1c60] using cpu capabilities: MMX2 SSE2Fast LZCNT SSSE3 SSE4.2 AVX
[libx264 @ 0x55a6d8da1c60] profile High, level 2.1
Output #0, rawvideo, to 'RollerCoaster_Tile_50_480x240_x264_QP_20.h264':
  Metadata:
    encoder         : Lavf57.83.100
    Stream #0:0: Video: h264 (libx264), yuv420p, 480x240, q=-1--1, 30 fps, 30 tbn, 30 tbc
    Metadata:
      encoder         : Lavc57.107.100 libx264
    Side data:
      cpb: bitrate max/min/avg: 0/0/0 buffer size: 0 vbv_delay: -1
frame=  172 fps=0.0 q=26.0 PSNR=Y:nan U:nan V:nan *:nan size=      87kB time=00:00:04.30 bitrate= 165.9kbits/s speed=8.53x    frame=  300 fps=0.0 q=26.0 LPSNR=Y:inf U:inf V:inf *:inf size=     178kB time=00:00:09.93 bitrate= 146.9kbits/s speed=10.5x    
video:178kB audio:0kB subtitle:0kB other streams:0kB global headers:0kB muxing overhead: 0.000000%
[libx264 @ 0x55a6d8da1c60] frame I:2     Avg QP:18.94  size:  9445  PSNR Mean Y:51.66 U:51.02 V:50.67 Avg:51.37 Global:51.33
[libx264 @ 0x55a6d8da1c60] frame P:76    Avg QP:19.66  size:  1463  PSNR Mean Y:49.60 U:50.41 V:50.02 Avg:49.79 Global:49.77
[libx264 @ 0x55a6d8da1c60] frame B:222   Avg QP:25.38  size:   236  PSNR Mean Y:48.98 U:50.14 V:49.65 Avg:49.26 Global:49.23
[libx264 @ 0x55a6d8da1c60] consecutive B-frames:  1.0%  0.7%  1.0% 97.3%
[libx264 @ 0x55a6d8da1c60] mb I  I16..4: 48.2% 24.7% 27.1%
[libx264 @ 0x55a6d8da1c60] mb P  I16..4:  5.7%  2.2%  0.2%  P16..4: 36.4% 12.7%  4.0%  0.0%  0.0%    skip:38.7%
[libx264 @ 0x55a6d8da1c60] mb B  I16..4:  0.0%  0.0%  0.0%  B16..8: 29.5%  1.9%  0.0%  direct: 0.1%  skip:68.5%  L0:46.5% L1:50.5% BI: 3.0%
[libx264 @ 0x55a6d8da1c60] 8x8 transform intra:26.4% inter:67.0%
[libx264 @ 0x55a6d8da1c60] coded y,uvDC,uvAC intra: 13.5% 44.8% 12.5% inter: 4.7% 9.5% 0.4%
[libx264 @ 0x55a6d8da1c60] i16 v,h,dc,p: 44% 39% 13%  5%
[libx264 @ 0x55a6d8da1c60] i8 v,h,dc,ddl,ddr,vr,hd,vl,hu:  7% 16% 70%  1%  1%  0%  1%  0%  3%
[libx264 @ 0x55a6d8da1c60] i4 v,h,dc,ddl,ddr,vr,hd,vl,hu:  9% 58% 11%  2%  2%  1%  6%  1% 11%
[libx264 @ 0x55a6d8da1c60] i8c dc,h,v,p: 44% 41% 13%  2%
[libx264 @ 0x55a6d8da1c60] Weighted P-Frames: Y:0.0% UV:0.0%
[libx264 @ 0x55a6d8da1c60] ref P L0: 56.2%  8.5% 26.1%  9.3%
[libx264 @ 0x55a6d8da1c60] ref B L0: 71.8% 22.7%  5.6%
[libx264 @ 0x55a6d8da1c60] ref B L1: 84.7% 15.3%
[libx264 @ 0x55a6d8da1c60] PSNR Mean Y:49.153 U:50.213 V:49.752 Avg:49.404 Global:49.373 kb/s:145.91
